<?xml version="1.0" standalone="no"?>
<!DOCTYPE svg PUBLIC "-//W3C//DTD SVG 20010904//EN"
 "http://www.w3.org/TR/2001/REC-SVG-20010904/DTD/svg10.dtd">
<svg version="1.0" xmlns="http://www.w3.org/2000/svg"
 width="400.000000pt" height="400.000000pt" viewBox="0 0 400.000000 400.000000"
 preserveAspectRatio="xMidYMid meet">
<metadata>
Created by potrace 1.14, written by Peter Selinger 2001-2017
</metadata>
<g transform="translate(0.000000,400.000000) scale(0.100000,-0.100000)"
fill="#000000" stroke="none">
<path d="M0 2000 l0 -2000 2000 0 2000 0 0 2000 0 2000 -2000 0 -2000 0 0
-2000z m1719 523 c29 -82 63 -177 76 -213 13 -36 83 -231 155 -435 72 -203
135 -380 140 -393 22 -51 20 -52 -128 -52 l-137 0 -50 145 -50 145 -222 0
-222 0 -47 -145 -46 -145 -129 0 c-88 0 -129 4 -129 11 0 6 29 93 64 193 36
99 85 240 109 311 25 72 61 175 81 230 19 55 60 171 90 259 31 88 56 175 56
197 l0 39 169 0 168 0 52 -147z m1151 -152 c69 -26 114 -63 146 -117 48 -82
54 -131 54 -490 l0 -331 -121 -7 c-67 -4 -125 -4 -130 1 -4 4 -9 145 -11 313
-3 286 -4 308 -24 345 -29 56 -73 77 -149 72 -38 -3 -74 -13 -97 -27 l-38 -22
0 -339 0 -339 -130 0 -130 0 0 383 c0 211 -3 425 -6 475 l-7 92 110 0 c118 0
125 -3 137 -53 l6 -27 41 27 c96 64 247 83 349 44z"/>
<path d="M1494 2424 c-10 -48 -104 -355 -124 -411 l-20 -53 150 0 c83 0 150 3
150 8 0 4 -20 70 -45 147 -25 77 -57 183 -71 235 -15 52 -28 97 -30 99 -1 2
-6 -10 -10 -25z"/>
</g>
</svg>
